<?xml version="1.0" encoding="UTF-8"?>
<svg version="1.1" xmlns="http://www.w3.org/2000/svg" width="101" height="101">
<path d="M0 0 C1.04897461 -0.04930664 1.04897461 -0.04930664 2.11914062 -0.09960938 C6.13871885 -0.1409708 7.97860419 0.31010056 11.51171875 2.46484375 C17.35408627 8.95541555 17.61450056 15.4874288 17.375 23.9375 C17.35469727 25.31421875 17.35469727 25.31421875 17.33398438 26.71875 C17.29898097 28.95896803 17.24988869 31.19790594 17.1875 33.4375 C17.78699463 33.42178955 18.38648926 33.4060791 19.00415039 33.38989258 C21.75266877 33.3270587 24.50103542 33.28835765 27.25 33.25 C28.66442383 33.21229492 28.66442383 33.21229492 30.10742188 33.17382812 C37.5582666 33.09594473 42.00447402 34.06953458 48.0859375 38.59375 C50.93502139 42.44901594 50.93360888 45.26269729 50.8125 49.9375 C50.83183594 50.68386719 50.85117188 51.43023437 50.87109375 52.19921875 C50.83452606 56.33136805 50.53353219 57.99816903 47.8984375 61.34375 C43.76298628 64.5377008 41.0088618 65.67678794 35.765625 65.8515625 C34.74082031 65.89023438 33.71601562 65.92890625 32.66015625 65.96875 C31.59667969 65.9996875 30.53320312 66.030625 29.4375 66.0625 C28.35855469 66.10117188 27.27960938 66.13984375 26.16796875 66.1796875 C23.50798225 66.27384631 20.8480006 66.35947387 18.1875 66.4375 C18.15011719 67.70464844 18.11273438 68.97179687 18.07421875 70.27734375 C18.00850207 71.97658931 17.94205677 73.6758068 17.875 75.375 C17.85244141 76.20580078 17.82988281 77.03660156 17.80664062 77.89257812 C17.5416734 84.08317601 17.00343606 91.19701191 12.7722168 96.06616211 C7.96523795 100.225891 3.80752721 100.79496761 -2.30859375 100.71484375 C-6.05246028 100.30015651 -8.04577627 98.94072623 -10.8125 96.4375 C-14.88477915 91.26460486 -15.9519006 87.04459368 -15.91015625 80.57421875 C-15.90693359 79.68798828 -15.90371094 78.80175781 -15.90039062 77.88867188 C-15.88782227 76.5206543 -15.88782227 76.5206543 -15.875 75.125 C-15.87048828 74.19365234 -15.86597656 73.26230469 -15.86132812 72.30273438 C-15.84959234 70.01425627 -15.83317363 67.72591192 -15.8125 65.4375 C-16.8480603 65.4689209 -16.8480603 65.4689209 -17.90454102 65.50097656 C-21.06120993 65.58461095 -24.21764502 65.63630953 -27.375 65.6875 C-28.46103516 65.72101563 -29.54707031 65.75453125 -30.66601562 65.7890625 C-37.29535733 65.8696624 -41.49953298 65.54494325 -46.8125 61.4375 C-49.65893201 57.97755132 -50.70938527 54.27714855 -51.25 49.875 C-50.58341935 44.63758064 -49.25921357 40.84614216 -45.4375 37.125 C-41.03446994 34.29448068 -37.53066902 33.18366571 -32.29296875 33.2421875 C-30.7605957 33.25185547 -30.7605957 33.25185547 -29.19726562 33.26171875 C-28.14216797 33.27847656 -27.08707031 33.29523437 -26 33.3125 C-24.92556641 33.32152344 -23.85113281 33.33054688 -22.74414062 33.33984375 C-20.10003146 33.36334694 -17.45638128 33.39620425 -14.8125 33.4375 C-14.83344727 32.74712646 -14.85439453 32.05675293 -14.87597656 31.34545898 C-14.95961095 28.18879007 -15.01130953 25.03235498 -15.0625 21.875 C-15.11277344 20.24594727 -15.11277344 20.24594727 -15.1640625 18.58398438 C-15.24472174 11.94976221 -14.8839751 7.77581898 -10.8125 2.4375 C-7.13925811 -0.01132793 -4.25681556 0.03473376 0 0 Z " fill="#597DFC" transform="translate(50.8125,-0.4375)"/>
<path d="M0 0 C1.04897461 -0.04930664 1.04897461 -0.04930664 2.11914062 -0.09960938 C6.13871885 -0.1409708 7.97860419 0.31010056 11.51171875 2.46484375 C17.35408627 8.95541555 17.61450056 15.4874288 17.375 23.9375 C17.35469727 25.31421875 17.35469727 25.31421875 17.33398438 26.71875 C17.29898097 28.95896803 17.24988869 31.19790594 17.1875 33.4375 C17.78699463 33.42178955 18.38648926 33.4060791 19.00415039 33.38989258 C21.75266877 33.3270587 24.50103542 33.28835765 27.25 33.25 C28.66442383 33.21229492 28.66442383 33.21229492 30.10742188 33.17382812 C37.5582666 33.09594473 42.00447402 34.06953458 48.0859375 38.59375 C50.93502139 42.44901594 50.93360888 45.26269729 50.8125 49.9375 C50.83183594 50.68386719 50.85117188 51.43023437 50.87109375 52.19921875 C50.83452606 56.33136805 50.53353219 57.99816903 47.8984375 61.34375 C43.76298628 64.5377008 41.0088618 65.67678794 35.765625 65.8515625 C34.74082031 65.89023438 33.71601562 65.92890625 32.66015625 65.96875 C31.59667969 65.9996875 30.53320312 66.030625 29.4375 66.0625 C28.35855469 66.10117188 27.27960938 66.13984375 26.16796875 66.1796875 C23.50798225 66.27384631 20.8480006 66.35947387 18.1875 66.4375 C18.15011719 67.70464844 18.11273438 68.97179687 18.07421875 70.27734375 C18.00850207 71.97658931 17.94205677 73.6758068 17.875 75.375 C17.85244141 76.20580078 17.82988281 77.03660156 17.80664062 77.89257812 C17.51060917 84.80894948 16.60951103 91.60028708 12 97 C11.401875 97.474375 10.80375 97.94875 10.1875 98.4375 C9.1975 97.9425 9.1975 97.9425 8.1875 97.4375 C9.45703125 95.97265625 10.7265625 94.5078125 11.99609375 93.04296875 C16.06117859 87.56510033 14.49496459 78.13262095 14.53759766 71.56079102 C14.55412104 69.69575491 14.58136321 67.83078117 14.61962891 65.96606445 C14.67472242 63.26480554 14.69632238 60.56502824 14.7109375 57.86328125 C14.73360687 57.03903152 14.75627625 56.2147818 14.77963257 55.36555481 C14.75764331 49.26617877 13.27189175 45.03341782 9.1875 40.4375 C4.24313881 36.09358473 -0.90758347 35.85672079 -7.25390625 35.94140625 C-8.582761 35.9392234 -8.582761 35.9392234 -9.9384613 35.93699646 C-11.8016999 35.93864862 -13.66495311 35.95013295 -15.52807617 35.97094727 C-18.37022144 35.99995123 -21.21050398 35.99153197 -24.05273438 35.97851562 C-25.86980067 35.98475261 -27.68686112 35.99314325 -29.50390625 36.00390625 C-30.34780411 36.00097061 -31.19170197 35.99803497 -32.06117249 35.99501038 C-37.02391468 36.07391234 -40.54300821 36.63263149 -44.8125 39.4375 C-48.24074951 44.9669347 -47.99304936 49.16494255 -46.8125 55.4375 C-46.1525 55.4375 -45.4925 55.4375 -44.8125 55.4375 C-44.52375 56.406875 -44.235 57.37625 -43.9375 58.375 C-43.17035318 61.54414203 -43.17035318 61.54414203 -40.8125 62.4375 C-38.85475931 62.59128852 -36.89232648 62.68721463 -34.9296875 62.75390625 C-33.17978516 62.81674805 -33.17978516 62.81674805 -31.39453125 62.88085938 C-29.55955078 62.93983398 -29.55955078 62.93983398 -27.6875 63 C-26.45644531 63.04318359 -25.22539062 63.08636719 -23.95703125 63.13085938 C-20.90899488 63.23718623 -17.86076261 63.33786972 -14.8125 63.4375 C-14.8125 70.6975 -14.8125 77.9575 -14.8125 85.4375 C-15.1425 85.4375 -15.4725 85.4375 -15.8125 85.4375 C-15.8125 78.8375 -15.8125 72.2375 -15.8125 65.4375 C-17.46378906 65.48390625 -19.11507813 65.5303125 -20.81640625 65.578125 C-23.00258602 65.61565598 -25.18878542 65.65205471 -27.375 65.6875 C-28.46103516 65.72101563 -29.54707031 65.75453125 -30.66601562 65.7890625 C-37.29535733 65.8696624 -41.49953298 65.54494325 -46.8125 61.4375 C-49.65893201 57.97755132 -50.70938527 54.27714855 -51.25 49.875 C-50.58341935 44.63758064 -49.25921357 40.84614216 -45.4375 37.125 C-41.03446994 34.29448068 -37.53066902 33.18366571 -32.29296875 33.2421875 C-30.7605957 33.25185547 -30.7605957 33.25185547 -29.19726562 33.26171875 C-28.14216797 33.27847656 -27.08707031 33.29523437 -26 33.3125 C-24.92556641 33.32152344 -23.85113281 33.33054688 -22.74414062 33.33984375 C-20.10003146 33.36334694 -17.45638128 33.39620425 -14.8125 33.4375 C-14.83344727 32.74712646 -14.85439453 32.05675293 -14.87597656 31.34545898 C-14.95961095 28.18879007 -15.01130953 25.03235498 -15.0625 21.875 C-15.11277344 20.24594727 -15.11277344 20.24594727 -15.1640625 18.58398438 C-15.24472174 11.94976221 -14.8839751 7.77581898 -10.8125 2.4375 C-7.13925811 -0.01132793 -4.25681556 0.03473376 0 0 Z " fill="#6DDBFC" transform="translate(50.8125,-0.4375)"/>
<path d="M0 0 C17.44397608 -1.08148646 17.44397608 -1.08148646 24.23828125 4.00390625 C29.4213579 9.87652746 30.58945416 14.31936536 30.25 21.9375 C30.22292969 23.10635742 30.22292969 23.10635742 30.1953125 24.29882812 C30.14866383 26.19976131 30.07693829 28.10005169 30 30 C13.21950791 30.91641037 13.21950791 30.91641037 7.4765625 26.42578125 C2.74218129 21.85422267 0.14984727 17.89205231 -0.1953125 11.23046875 C-0.18216327 9.88267285 -0.1585249 8.53494305 -0.125 7.1875 C-0.11597656 6.49462891 -0.10695312 5.80175781 -0.09765625 5.08789062 C-0.07426157 3.39177605 -0.03839641 1.69584129 0 0 Z " fill="#2524F9" transform="translate(36,35)"/>
<path d="M0 0 C0.598125 0.20625 1.19625 0.4125 1.8125 0.625 C0.86375 0.8725 -0.085 1.12 -1.0625 1.375 C-4.18943433 2.31163912 -4.18943433 2.31163912 -5.5 4.375 C-7.67816305 11.50353363 -7.52693268 18.98027021 -7.79296875 26.36523438 C-7.83035156 27.28240234 -7.86773437 28.19957031 -7.90625 29.14453125 C-7.93654297 29.98089111 -7.96683594 30.81725098 -7.99804688 31.67895508 C-8.1875 33.625 -8.1875 33.625 -9.1875 34.625 C-10.89687996 34.74636053 -12.61082161 34.80465699 -14.32421875 34.8359375 C-15.37673828 34.86429688 -16.42925781 34.89265625 -17.51367188 34.921875 C-19.73486728 34.97350069 -21.95624362 35.0179035 -24.17773438 35.0546875 C-32.1155714 35.24060521 -32.1155714 35.24060521 -39.1875 38.625 C-42.61574951 44.1544347 -42.36804936 48.35244255 -41.1875 54.625 C-40.5275 54.625 -39.8675 54.625 -39.1875 54.625 C-38.89875 55.594375 -38.61 56.56375 -38.3125 57.5625 C-37.54535318 60.73164203 -37.54535318 60.73164203 -35.1875 61.625 C-33.22975931 61.77878852 -31.26732648 61.87471463 -29.3046875 61.94140625 C-27.55478516 62.00424805 -27.55478516 62.00424805 -25.76953125 62.06835938 C-23.93455078 62.12733398 -23.93455078 62.12733398 -22.0625 62.1875 C-20.83144531 62.23068359 -19.60039062 62.27386719 -18.33203125 62.31835938 C-15.28399488 62.42468623 -12.23576261 62.52536972 -9.1875 62.625 C-9.1875 69.885 -9.1875 77.145 -9.1875 84.625 C-9.5175 84.625 -9.8475 84.625 -10.1875 84.625 C-10.1875 78.025 -10.1875 71.425 -10.1875 64.625 C-11.83878906 64.67140625 -13.49007813 64.7178125 -15.19140625 64.765625 C-17.37758602 64.80315598 -19.56378542 64.83955471 -21.75 64.875 C-22.83603516 64.90851563 -23.92207031 64.94203125 -25.04101562 64.9765625 C-31.67035733 65.0571624 -35.87453298 64.73244325 -41.1875 60.625 C-44.03393201 57.16505132 -45.08438527 53.46464855 -45.625 49.0625 C-44.95841935 43.82508064 -43.63421357 40.03364216 -39.8125 36.3125 C-35.40946994 33.48198068 -31.90566902 32.37116571 -26.66796875 32.4296875 C-25.1355957 32.43935547 -25.1355957 32.43935547 -23.57226562 32.44921875 C-22.51716797 32.46597656 -21.46207031 32.48273437 -20.375 32.5 C-19.30056641 32.50902344 -18.22613281 32.51804688 -17.11914062 32.52734375 C-14.47503146 32.55084694 -11.83138128 32.58370425 -9.1875 32.625 C-9.20844727 31.93462646 -9.22939453 31.24425293 -9.25097656 30.53295898 C-9.33461095 27.37629007 -9.38630953 24.21985498 -9.4375 21.0625 C-9.48777344 19.43344727 -9.48777344 19.43344727 -9.5390625 17.77148438 C-9.61972174 11.13726221 -9.2589751 6.96331898 -5.1875 1.625 C-2.1875 -0.375 -2.1875 -0.375 0 0 Z " fill="#BDCEEE" transform="translate(45.1875,0.375)"/>
<path d="M0 0 C4.18246733 0.19453336 5.70256428 0.70932418 8.75 3.6875 C13.49275791 9.55271061 13.25761869 16.22379218 13.125 23.375 C13.11597656 24.30183594 13.10695313 25.22867187 13.09765625 26.18359375 C13.07422937 28.45600077 13.04142748 30.7278618 13 33 C13.59949463 32.98428955 14.19898926 32.9685791 14.81665039 32.95239258 C17.56516877 32.8895587 20.31353542 32.85085765 23.0625 32.8125 C24.47692383 32.77479492 24.47692383 32.77479492 25.91992188 32.73632812 C33.36813769 32.65847221 38.08834419 33.63427965 44 38.4375 C46 41 46 41 45.8125 43.3125 C45.544375 43.869375 45.27625 44.42625 45 45 C44.46375 44.071875 43.9275 43.14375 43.375 42.1875 C40.61184909 38.47906062 39.32043408 37.60154022 35 36 C30.8790858 35.50465185 26.77226272 35.39798539 22.625 35.3125 C21.50738281 35.27833984 20.38976562 35.24417969 19.23828125 35.20898438 C16.49228778 35.12683927 13.74660018 35.05757872 11 35 C10.9906543 34.30962646 10.98130859 33.61925293 10.97167969 32.90795898 C10.91767333 29.7504403 10.83408531 26.59435512 10.75 23.4375 C10.73582031 22.35146484 10.72164062 21.26542969 10.70703125 20.14648438 C10.50837936 13.61083709 9.99485887 9.26858199 6 4 C2.91619214 2.03816941 2.91619214 2.03816941 0 1 C0 0.67 0 0.34 0 0 Z " fill="#ECF8F9" transform="translate(55,0)"/>
<path d="M0 0 C0.66 0 1.32 0 2 0 C2.02505615 0.72590332 2.0501123 1.45180664 2.07592773 2.19970703 C2.19241241 5.50829446 2.31490014 8.81663376 2.4375 12.125 C2.47681641 13.26710938 2.51613281 14.40921875 2.55664062 15.5859375 C2.59853516 16.69453125 2.64042969 17.803125 2.68359375 18.9453125 C2.72025146 19.96125488 2.75690918 20.97719727 2.79467773 22.02392578 C3.00464568 25.06733757 3.45061296 28.00085508 4 31 C1.37610016 28.49018276 0.04939804 27.13732348 -0.11352539 23.38623047 C-0.10828857 22.30744629 -0.10305176 21.22866211 -0.09765625 20.1171875 C-0.09443359 18.95058594 -0.09121094 17.78398438 -0.08789062 16.58203125 C-0.07951172 15.35871094 -0.07113281 14.13539062 -0.0625 12.875 C-0.05798828 11.64394531 -0.05347656 10.41289063 -0.04882812 9.14453125 C-0.0370133 6.09630608 -0.02054028 3.04817686 0 0 Z " fill="#748CE6" transform="translate(36,64)"/>
<path d="M0 0 C0.33 0 0.66 0 1 0 C1 6.6 1 13.2 1 20 C5.75658327 19.92123253 5.75658327 19.92123253 10.51269531 19.81982422 C14.19778057 19.78909866 16.88201812 19.95884691 20 22 C20 22.66 20 23.32 20 24 C19.13713379 23.76228882 19.13713379 23.76228882 18.25683594 23.51977539 C16.09060223 23.02086674 14.10677317 22.80111676 11.890625 22.68359375 C11.21032227 22.64548584 10.53001953 22.60737793 9.82910156 22.56811523 C8.55244629 22.50346069 8.55244629 22.50346069 7.25 22.4375 C4.5275 22.293125 1.805 22.14875 -1 22 C-0.67 14.74 -0.34 7.48 0 0 Z " fill="#72CFF9" transform="translate(37,13)"/>
<path d="M0 0 C1.16781006 0.00523682 2.33562012 0.01047363 3.53881836 0.01586914 C4.79887695 0.0190918 6.05893555 0.02231445 7.35717773 0.02563477 C8.6976732 0.03399136 10.03816799 0.04245632 11.37866211 0.05102539 C12.72306153 0.05603879 14.06746271 0.06060197 15.41186523 0.06469727 C18.71334151 0.07653051 22.01473014 0.09301568 25.31616211 0.11352539 C20.77608609 3.14024273 16.16765837 2.66145915 10.81616211 2.86352539 C9.7578418 2.91895508 8.69952148 2.97438477 7.60913086 3.03149414 C6.08739258 3.09530273 6.08739258 3.09530273 4.53491211 3.16040039 C3.60614258 3.20003906 2.67737305 3.23967773 1.72045898 3.28051758 C-0.68383789 3.11352539 -0.68383789 3.11352539 -3.68383789 1.11352539 C-2.68383789 0.11352539 -2.68383789 0.11352539 0 0 Z " fill="#97D0E3" transform="translate(69.683837890625,62.886474609375)"/>
<path d="M0 0 C3.93938363 4.2851274 3.53777813 8.33609133 3.4375 13.9140625 C3.00151621 16.98930531 2.67138909 18.17812323 0.5 20.3125 C-0.325 20.869375 -1.15 21.42625 -2 22 C-2 19 -2 19 -0.5 15.625 C0.86976637 12.31473128 1.31747077 10.49217847 1 7 C0.01 7.495 0.01 7.495 -1 8 C-0.67 5.36 -0.34 2.72 0 0 Z " fill="#9DE2F4" transform="translate(98,41)"/>
<path d="M0 0 C2.3125 -0.1875 2.3125 -0.1875 5 0 C5.433125 0.495 5.86625 0.99 6.3125 1.5 C8.73585171 3.65409041 10.50745233 3.29973698 13.6875 3.1875 C15.17830078 3.14689453 15.17830078 3.14689453 16.69921875 3.10546875 C17.45847656 3.07066406 18.21773437 3.03585938 19 3 C14.75435531 5.8304298 10.98662161 5.65715169 6 5 C3.52486465 3.92533416 2.0678707 2.79578245 0 1 C0 0.67 0 0.34 0 0 Z " fill="#B6C1EA" transform="translate(40,95)"/>
<path d="M0 0 C0.33 0.66 0.66 1.32 1 2 C0.33333333 3.33333333 -0.33333333 4.66666667 -1 6 C-1.45064632 8.58532701 -1.45064632 8.58532701 -1.625 11.25 C-1.69976562 12.14203125 -1.77453125 13.0340625 -1.8515625 13.953125 C-1.90054687 14.62859375 -1.94953125 15.3040625 -2 16 C-4.47717167 12.28424249 -4.30345742 10.40013262 -4 6 C-3.125 3.125 -3.125 3.125 -2 1 C-1.34 0.67 -0.68 0.34 0 0 Z " fill="#AEBCEF" transform="translate(4,40)"/>
<path d="M0 0 C6.6 0 13.2 0 20 0 C20.33 0.99 20.66 1.98 21 3 C20.42475586 2.84152588 19.84951172 2.68305176 19.25683594 2.51977539 C17.09060223 2.02086674 15.10677317 1.80111676 12.890625 1.68359375 C12.13652344 1.64169922 11.38242187 1.59980469 10.60546875 1.55664062 C9.43951172 1.49766602 9.43951172 1.49766602 8.25 1.4375 C7.06083984 1.37272461 7.06083984 1.37272461 5.84765625 1.30664062 C3.89862185 1.20097009 1.94933252 1.10002034 0 1 C0 0.67 0 0.34 0 0 Z " fill="#5C99F8" transform="translate(36,34)"/>
<path d="M0 0 C0.66 0.33 1.32 0.66 2 1 C-0.625 6.75 -0.625 6.75 -4 9 C-2.25 2.25 -2.25 2.25 0 0 Z " fill="#647FF1" transform="translate(7,37)"/>
</svg>
